<svg width="47" height="30" viewBox="0 0 47 44" fill="#FFC98A" xmlns="http://www.w3.org/2000/svg">
<path d="M36.944 10.672L31.1896 2.21805C30.7631 1.59278 30.1962 1.07989 29.536 0.72187C28.8757 0.36385 28.141 0.171012 27.3929 0.159335L16.4725 0H16.45C10.8121 0 6.48629 0.959101 3.70027 5.63988C1.10646 9.99691 0 17.4189 0 30.4565V32.0498H3.57954L1.27527 44H4.46833L6.7726 32.0498H7.83333C10.3921 32.0731 12.8571 31.0718 14.6961 29.2623C16.3586 27.6444 17.5578 25.431 18.1642 22.8616L18.1697 22.8385L20.8568 9.74287H17.6559L15.1122 22.14C14.3374 25.3944 12.0208 28.8631 7.83333 28.8631H3.13921C3.2243 17.5836 4.23411 10.8962 6.38074 7.2897C8.18241 4.26232 10.8159 3.18771 16.4391 3.18621L27.3478 3.34555C27.5972 3.34941 27.8421 3.41367 28.0622 3.53302C28.2823 3.65236 28.4713 3.82334 28.6134 4.03179L35.1227 13.5938L43.8667 15.076V16.7649L42.4085 24.674C41.9781 27.0084 41.2425 28.1843 38.2257 28.5528L25.8582 30.7047L25.7765 44H28.9098L28.9751 33.3949L38.6395 31.7119C40.8289 31.4382 42.4442 30.7206 43.577 29.5188C44.5454 28.4913 45.1348 27.1786 45.4883 25.2613L47 17.061V12.3765L36.944 10.672Z" fill="#FFC98A"/>
</svg>
