<svg width="45" height="49" viewBox="0 0 45 49" fill="none" xmlns="http://www.w3.org/2000/svg">
<path d="M3.75 12.25C3.75 11.1224 4.58947 10.2083 5.625 10.2083H39.375C40.4106 10.2083 41.25 11.1224 41.25 12.25C41.25 13.3776 40.4106 14.2917 39.375 14.2917H5.625C4.58947 14.2917 3.75 13.3776 3.75 12.25Z" fill="#005D77"/>
<path d="M3.75 24.5657C3.75 23.4381 4.58947 22.5241 5.625 22.5241H39.375C40.4106 22.5241 41.25 23.4381 41.25 24.5657C41.25 25.6934 40.4106 26.6074 39.375 26.6074H5.625C4.58947 26.6074 3.75 25.6934 3.75 24.5657Z" fill="#005D77"/>
<path d="M5.625 34.84C4.58947 34.84 3.75 35.7541 3.75 36.8817C3.75 38.0091 4.58947 38.9234 5.625 38.9234H39.375C40.4106 38.9234 41.25 38.0091 41.25 36.8817C41.25 35.7541 40.4106 34.84 39.375 34.84H5.625Z" fill="#005D77"/>
</svg>
